<?xml version="1.0" encoding="utf-8"?>
<!-- Generator: Adobe Illustrator 19.2.0, SVG Export Plug-In . SVG Version: 6.00 Build 0)  -->
<svg version="1.1" id="Layer_1" xmlns="http://www.w3.org/2000/svg" xmlns:xlink="http://www.w3.org/1999/xlink" x="0px" y="0px"
	 viewBox="0 0 227.2 80.4" enable-background="new 0 0 227.2 80.4" xml:space="preserve">
<linearGradient id="SVGID_1_" gradientUnits="userSpaceOnUse" x1="33.4957" y1="1.3108" x2="33.4957" y2="79.2281">
	<stop  offset="0.3" style="stop-color:#FF1B2D"/>
	<stop  offset="0.4381" style="stop-color:#FA1A2C"/>
	<stop  offset="0.5939" style="stop-color:#ED1528"/>
	<stop  offset="0.7581" style="stop-color:#D60E21"/>
	<stop  offset="0.9272" style="stop-color:#B70519"/>
	<stop  offset="1" style="stop-color:#A70014"/>
</linearGradient>
<path fill="url(#SVGID_1_)" d="M27,62.9c-4.4-5.2-7.3-13-7.5-21.7c0,0,0-1.9,0-1.9c0.2-8.7,3.1-16.5,7.5-21.7
	c5.8-7.5,14.3-12.2,23.9-12.2c5.9,0,11.4,1.8,16.1,4.9C59.9,3.9,50.6,0,40.4,0c-0.1,0-0.1,0-0.2,0C18,0,0,18,0,40.2
	c0,21.6,17,39.2,38.3,40.2c0.6,0,1.3,0,1.9,0c10.3,0,19.7-3.9,26.8-10.2c-4.7,3.1-10.2,4.9-16.1,4.9C41.3,75.1,32.7,70.3,27,62.9z"
	/>
<g>
	<linearGradient id="SVGID_2_" gradientUnits="userSpaceOnUse" x1="53.6825" y1="5.9033" x2="53.6825" y2="74.8173">
		<stop  offset="0" style="stop-color:#9C0000"/>
		<stop  offset="0.7" style="stop-color:#FF4B4B"/>
	</linearGradient>
	<path fill="url(#SVGID_2_)" d="M27,17.5c3.7-4.4,8.5-7,13.7-7c11.7,0,21.2,13.3,21.2,29.6s-9.5,29.6-21.2,29.6
		c-5.2,0-10-2.6-13.7-7c5.8,7.5,14.3,12.2,23.9,12.2c5.9,0,11.4-1.8,16.1-4.9c8.2-7.4,13.4-18.1,13.4-30c0-11.9-5.2-22.6-13.4-30
		c-4.7-3.1-10.2-4.9-16.1-4.9C41.3,5.3,32.7,10.1,27,17.5z"/>
</g>
<path fill="#FFFFFF" d="M173.3,58.1c-0.1,0-0.1,0-0.1,0.1c-0.6,2.1-1.1,4.3-1.7,6.4c-0.5,1.7-1,3.4-1.3,5.2c0,0,0,0.1,0,0.1
	c0-0.2-0.1-0.4-0.1-0.6c-0.3-1-0.5-2-0.8-3.1c-0.7-2.7-1.4-5.3-2.1-8c0-0.1,0-0.1-0.1-0.1c-0.5,0-1,0-1.6,0c0,0-0.1,0-0.1,0
	c-1,3.9-2.1,7.8-3,11.8c-0.1-0.4-0.2-0.9-0.3-1.3c-0.2-0.9-0.5-1.7-0.7-2.6c-0.7-2.6-1.4-5.2-2.1-7.8c0-0.1,0-0.1-0.1-0.1
	c-0.5,0-1,0-1.4,0c0,0-0.1,0-0.1,0c1.3,4.6,2.6,9.2,3.9,13.8c0.6,0,1.1,0,1.7,0c1-3.9,2-7.8,3.1-11.7c0,0,0,0,0,0
	c1,3.9,2,7.8,3.1,11.7c0.6,0,1.1,0,1.7,0c1.3-4.6,2.6-9.2,3.9-13.8c0,0-0.1,0-0.1,0C174.3,58.1,173.8,58.1,173.3,58.1z"/>
<path fill="#FFFFFF" d="M214.9,58l-2.1,0l-5.9,6.3c0,0,0-4.2,0-6.3c-0.6,0-1.1,0-1.6,0c0,4.6,0,9.2,0,13.8c0.5,0,1.1,0,1.7,0
	c0,0,0-0.1,0-0.1c0-1.7,0-3.4,0-5.2c0-0.1,0-0.1,0.1-0.1c0.5-0.6,1.1-1.1,1.6-1.7c0.1-0.1,0.2-0.2,0.3-0.3c0,0,0,0.1,0,0.1
	c0.2,0.4,0.5,0.8,0.7,1.2c1.2,2,2.4,4,3.6,6.1c0,0.1,0.1,0.1,0.2,0.1c0.6,0,1.1,0,1.7,0c0,0,0.1,0,0.1,0c-1.7-2.9-3.5-5.8-5.2-8.7
	C211.7,61.4,214.9,58,214.9,58z"/>
<path fill="#FFFFFF" d="M156.5,69.7c-0.9-2.4-1.9-4.8-2.8-7.1c-0.6-1.5-1.2-3-1.8-4.5c0,0,0,0-0.1,0c-0.5,0-1.1,0-1.6,0
	c0,0-0.1,0-0.1,0c-0.3,0.8-0.6,1.6-1,2.4c-0.7,1.9-1.5,3.8-2.2,5.6c-0.7,1.8-1.4,3.6-2.1,5.4c0,0.1-0.1,0.2-0.1,0.3c0,0,0,0,0.1,0
	c0.5,0,1,0,1.6,0c0,0,0.1,0,0.1-0.1c0.5-1.3,1-2.6,1.5-4c0,0,0-0.1,0.1-0.1c2,0,4,0,6,0c0,0,0.1,0,0.1,0.1c0.5,1.3,1,2.6,1.5,4
	c0,0,0,0.1,0.1,0.1c0.5,0,1,0,1.6,0c0,0,0,0,0.1,0c0,0,0,0,0-0.1C157.1,71.1,156.8,70.4,156.5,69.7z M148.5,66.4
	c0.8-2.2,1.7-4.3,2.5-6.5c0.8,2.2,1.7,4.3,2.5,6.5C151.9,66.4,150.2,66.4,148.5,66.4z"/>
<path fill="#FFFFFF" d="M137.6,62.3c-0.3-0.8-0.7-1.6-1.3-2.2c-0.6-0.6-1.2-1-2-1.4c-1-0.4-2-0.6-3.1-0.6c-1.3,0-2.5,0-3.8,0
	c0,0,0,0-0.1,0c0,4.6,0,9.2,0,13.8c0,0,0,0,0.1,0c1.2,0,2.4,0,3.7,0c0.4,0,0.9,0,1.3-0.1c0.6-0.1,1.1-0.2,1.7-0.4
	c0.9-0.3,1.7-0.8,2.3-1.6c0.6-0.7,1.1-1.4,1.3-2.3c0.2-0.7,0.4-1.5,0.4-2.3c0-0.4,0-0.8,0-1.2C137.9,63.4,137.8,62.8,137.6,62.3z
	 M136.3,65.6c-0.1,0.7-0.2,1.4-0.5,2.1c-0.5,1.1-1.3,1.8-2.4,2.3c-0.4,0.2-0.9,0.3-1.4,0.3c-0.4,0.1-0.8,0.1-1.1,0.1
	c-0.6,0-1.2,0-1.9,0c0,0,0,0-0.1,0c0,0,0-0.1,0-0.1c0-3.6,0-7.1,0-10.7c0-0.1,0-0.1,0.1-0.1c0.7,0,1.4,0,2.1,0
	c0.8,0,1.7,0.1,2.5,0.5c1.2,0.5,2,1.4,2.4,2.7c0.2,0.5,0.3,1,0.3,1.5C136.3,64.7,136.3,65.1,136.3,65.6z"/>
<path fill="#FFFFFF" d="M117,65.4c2.1,0,4.3,0,6.4,0c0-0.5,0-1,0-1.5c-2.1,0-4.2,0-6.4,0c0,0,0-0.1,0-0.1c0-1.4,0-2.9,0-4.3
	c0,0,0,0,0,0c0,0,0,0,0,0c0,0,0,0,0.1,0c2.3,0,4.5,0,6.8,0c0,0,0.1,0,0.1,0c0-0.5,0-1,0-1.5c-2.9,0-5.7,0-8.6,0c0,4.6,0,9.2,0,13.8
	c2.9,0,5.8,0,8.6,0c0-0.5,0-1,0-1.5c-2.3,0-4.7,0-7,0C117,68.7,117,67.1,117,65.4z"/>
<rect x="140.8" y="58" fill="#FFFFFF" width="1.6" height="13.8"/>
<path fill="#FFFFFF" d="M110.1,58.1C110.1,58.1,110.1,58.1,110.1,58.1c-0.3,0.6-0.5,1.2-0.8,1.7c-1.3,3.3-2.6,6.6-3.9,9.9
	c-0.1,0.3-0.2,0.5-0.3,0.8c0,0,0,0,0-0.1c-0.8-1.9-1.5-3.8-2.3-5.7c-0.9-2.2-1.8-4.4-2.6-6.6c0,0,0-0.1-0.1-0.1c-0.5,0-1.1,0-1.6,0
	c0,0,0,0-0.1,0c0,4.6,0,9.2,0,13.8c0.5,0,1,0,1.6,0c0-3.5,0-7.1,0-10.6c0,0,0,0,0,0c0.4,1.3,0.9,2.5,1.4,3.7
	c0.6,1.4,1.1,2.8,1.7,4.2c0.4,0.9,0.7,1.8,1.1,2.6c0,0,0,0,0.1,0c0.5,0,1.1,0,1.6,0c0,0,0,0,0.1,0c0-0.1,0.1-0.2,0.1-0.3
	c0.9-2.3,1.9-4.5,2.8-6.8c0.5-1.1,0.9-2.3,1.3-3.4c0,0,0,0,0,0c0,0,0,0,0,0c0,3.5,0,7,0,10.6c0.5,0,1,0,1.6,0c0-4.6,0-9.2,0-13.8
	c0,0,0,0-0.1,0C111.2,58.1,110.7,58.1,110.1,58.1z"/>
<path fill="#FFFFFF" d="M188.2,61.2c-0.4-0.8-0.9-1.4-1.6-2c-1.1-0.9-2.4-1.4-3.9-1.5c-0.6,0-1.2,0-1.7,0.2c-1.2,0.3-2.2,0.8-3,1.6
	c-0.7,0.7-1.2,1.4-1.5,2.3c-0.4,1-0.6,2-0.6,3c0,0.3,0,0.5,0,0.8c0,0.5,0.1,1,0.3,1.5c0.3,1.2,0.9,2.2,1.8,3.1
	c0.5,0.5,1,0.8,1.6,1.1c1,0.5,2,0.7,3.1,0.7c0.4,0,0.9-0.1,1.3-0.2c1.2-0.3,2.3-0.8,3.1-1.7c0.5-0.5,1-1.2,1.3-1.9
	c0.5-1,0.7-2,0.7-3.1c0-0.6,0-1.2-0.1-1.7C188.8,62.7,188.6,61.9,188.2,61.2z M186.9,67.5c-0.3,0.6-0.6,1.2-1.1,1.7
	c-0.7,0.7-1.5,1.1-2.5,1.3c-1,0.2-2,0.1-2.9-0.4c-0.8-0.4-1.4-0.9-1.8-1.6c-0.5-0.7-0.7-1.4-0.9-2.2c-0.1-0.4-0.1-0.8-0.1-1.2
	c0-0.9,0.1-1.8,0.4-2.7c0.4-0.9,0.9-1.7,1.7-2.3c0.6-0.4,1.2-0.7,2-0.8c0.8-0.1,1.6-0.1,2.4,0.2c1.1,0.4,1.9,1.1,2.5,2.1
	c0.4,0.6,0.6,1.3,0.7,2c0.1,0.5,0.1,0.9,0.1,1.4C187.4,65.8,187.3,66.7,186.9,67.5z"/>
<path fill="#FFFFFF" d="M198.4,65.7c0.5-0.1,1-0.3,1.5-0.6c0.7-0.4,1.2-1,1.6-1.8c0.2-0.6,0.3-1.2,0.2-1.8c0-0.5-0.2-1-0.4-1.4
	c-0.4-0.7-1-1.3-1.7-1.6c-0.7-0.3-1.4-0.5-2.1-0.5c-1.8,0-3.7,0-5.5,0c0,0,0,0-0.1,0c0,4.6,0,9.2,0,13.8c0.5,0,1.1,0,1.6,0
	c0-2,0-4,0-6c0,0,0,0,0,0c1,0,2,0,3,0c0,0,0.1,0,0.1,0c0.1,0.2,0.3,0.5,0.4,0.7c1,1.7,1.9,3.4,2.9,5.2c0,0,0,0,0.1,0
	c0.6,0,1.2,0,1.7,0c0,0,0,0,0.1,0C200.6,69.7,199.5,67.7,198.4,65.7C198.4,65.7,198.4,65.7,198.4,65.7z M196.9,64.3
	c-1.1,0-2.2,0-3.3,0c0,0,0,0-0.1,0c0,0,0,0,0-0.1c0-1.6,0-3.2,0-4.8c0,0,0-0.1,0.1-0.1c1.2,0,2.4,0,3.6,0c0.5,0,1,0.1,1.5,0.3
	c0.4,0.2,0.8,0.5,1.1,0.9c0.2,0.3,0.3,0.6,0.3,0.9c0,0.4,0,0.8-0.1,1.1c-0.2,0.6-0.5,1-1.1,1.3c-0.3,0.2-0.7,0.3-1.1,0.3
	C197.5,64.3,197.2,64.3,196.9,64.3z"/>
<path fill="#FFFFFF" d="M227.1,67.2c-0.1-0.6-0.3-1.2-0.8-1.6c-0.4-0.4-0.9-0.8-1.4-1c-0.7-0.3-1.4-0.5-2.2-0.7
	c-0.5-0.1-1.1-0.2-1.6-0.4c-0.4-0.1-0.9-0.3-1.2-0.6c-0.5-0.4-0.9-0.8-0.9-1.5c0-0.4,0.1-0.8,0.3-1.2c0.3-0.4,0.6-0.6,1-0.8
	c0.4-0.2,0.9-0.3,1.3-0.3c0.5,0,0.9,0,1.4,0.1c0.7,0.2,1.2,0.5,1.7,1c0.4,0.4,0.7,0.9,0.9,1.5c0,0,0,0,0,0.1
	c0.4-0.3,0.9-0.5,1.3-0.8c0,0,0,0,0-0.1c-0.1-0.2-0.2-0.5-0.3-0.7c-0.6-1.1-1.5-1.9-2.7-2.3c-0.7-0.3-1.5-0.3-2.3-0.3
	c-0.5,0-1,0.1-1.5,0.2c-0.7,0.2-1.4,0.6-1.9,1.1c-0.3,0.3-0.6,0.8-0.7,1.2c-0.2,0.5-0.2,1.1-0.1,1.6c0.1,0.5,0.3,1,0.6,1.4
	c0.4,0.4,0.8,0.8,1.3,1c0.7,0.4,1.4,0.6,2.1,0.7c0.4,0.1,0.8,0.2,1.2,0.2c0.5,0.1,1,0.3,1.5,0.5c0.3,0.2,0.6,0.3,0.8,0.6
	c0.3,0.3,0.5,0.8,0.5,1.2c0,0.4,0,0.8-0.1,1.1c-0.2,0.6-0.7,1-1.2,1.3c-0.5,0.2-1,0.4-1.5,0.4c-0.5,0-1.1,0-1.6-0.1
	c-0.8-0.2-1.4-0.6-1.9-1.2c-0.4-0.5-0.7-1.1-0.8-1.7c0-0.2-0.1-0.4-0.1-0.5c0,0,0,0,0,0c-0.5,0.2-0.9,0.5-1.4,0.7c0,0,0,0,0,0
	c0,0.1,0,0.2,0.1,0.3c0.2,0.9,0.6,1.6,1.2,2.3c0.6,0.6,1.4,1.1,2.2,1.3c0.8,0.2,1.6,0.3,2.4,0.3c0.6,0,1.1-0.1,1.6-0.3
	c0.8-0.3,1.4-0.7,1.9-1.3c0.6-0.7,0.9-1.5,0.9-2.5C227.2,67.7,227.1,67.5,227.1,67.2z"/>
<path fill="#FFFFFF" d="M145.8,18.2c-3.7,0-6.9,1.7-9.1,4.5v-3.9h-3v33.9h3V40.6c2.2,2.8,5.4,4.5,9.1,4.5c6.9,0,12.5-6,12.5-13.4
	C158.3,24.3,152.7,18.2,145.8,18.2z M145.8,42.2c-5.3,0-9.6-4.7-9.6-10.5c0-5.8,4.3-10.5,9.6-10.5c5.3,0,9.6,4.7,9.6,10.5
	C155.4,37.5,151.1,42.2,145.8,42.2z"/>
<path fill="#FFFFFF" d="M112.9,8.3C103,8.3,95,16.7,95,27.1c0,10.3,8,18.8,17.9,18.8c9.9,0,17.9-8.4,17.9-18.8
	C130.8,16.7,122.8,8.3,112.9,8.3z M112.9,43c-8.3,0-15.1-7.1-15.1-15.9c0-8.8,6.8-15.9,15.1-15.9c8.3,0,15.1,7.1,15.1,15.9
	C128,35.9,121.2,43,112.9,43z"/>
<path fill="#FFFFFF" d="M199.6,18.3c-1,0-2,0.3-2.9,0.8c-1.9,1-3.2,2.5-4,4.5c0,0,0,0.1-0.1,0.1c0,0,0,0,0,0c0-1.6,0-3.1,0-4.7h0v0
	h-3v0c0,8.5,0,16.9,0,25.4c1,0,2,0,3,0c0,0,0,0,0,0c0-0.1,0-0.1,0-0.2c0-4.6,0-8.6,0-13.2c0-1.9,0.3-3.4,0.9-4.9
	c0.6-1.4,1.4-2.6,2.5-3.6c1.3-1.1,2.9-1.6,4.6-1.4c0.3,0,0.6,0.1,0.9,0.2c0.2-0.8,0.6-1.9,0.7-2.8C201.4,18.4,200.4,18.3,199.6,18.3
	z"/>
<path fill="#FFFFFF" d="M173.4,18.3c-6.9,0-12.5,6-12.5,13.4c0,7.4,5.6,13.4,12.5,13.4c4.9,0,9.2-3.1,11.2-7.6l-2.5-1.5
	c-1.5,3.6-4.8,6.1-8.7,6.1c-5,0-9.1-4.2-9.5-9.6h20.2l0,0h1.8c0-0.3,0-0.6,0-0.9C185.9,23.8,180.8,18.3,173.4,18.3z M173.4,21.2
	c5.2,0,8.9,3.5,9.5,8.9H164C164.7,25,168.6,21.2,173.4,21.2z"/>
<path fill="#FFFFFF" d="M223.2,18.8v3.9c-2.2-2.8-5.4-4.5-9.1-4.5c-6.9,0-12.5,6-12.5,13.4c0,7.4,5.6,13.4,12.5,13.4
	c3.7,0,6.9-1.7,9.1-4.5v3.8h3V18.8H223.2z M214.1,42.2c-5.3,0-9.6-4.7-9.6-10.5c0-5.8,4.3-10.5,9.6-10.5s9.6,4.7,9.6,10.5
	C223.7,37.5,219.4,42.2,214.1,42.2z"/>
</svg>
